<?xml version="1.0" encoding="UTF-8"?>
<!-- Created with Inkscape (http://www.inkscape.org/) -->
<svg width="256" height="256" version="1.1" viewBox="0 0 256 256" xmlns="http://www.w3.org/2000/svg" style="background-color: white;">
 <path d="m0 249.07v-6.93l6.25 2.55c9.2899 3.7902 22.698 6.2952 36.75 6.8659l12.5 0.50766-8.0421-2.4645c-4.4232-1.3554-10.273-3.336-13-4.4012-2.7268-1.0652-8.1035-2.4775-11.948-3.1385-3.8447-0.66095-10.19-2.5338-14.101-4.162l-7.1109-2.9603-0.64359-9.7186c-0.95095-14.36-0.79127-50.219 0.22362-50.219 0.48266 0 1.4165 0.64943 2.0753 1.4432 0.65876 0.79375 5.2799 3.1352 10.269 5.2033 6.3509 2.6324 9.2524 4.3739 9.6747 5.8068 0.38531 1.3074 0.79456 0.0599 1.1329-3.4533l0.52965-5.5 2.2866 7.1474c4.6423 14.511 12.447 19.621 33.154 21.706l5.5 0.55392-5.1224-2.3783c-2.8173-1.3081-7.8798-2.9208-11.25-3.5839-3.3702-0.66305-6.1282-1.4845-6.1289-1.8254-0.0025-1.1876 23.5-0.0594 27.501 1.3202 8.579 2.9582 18.278 4.0599 35.742 4.0599h17.742l-7.2416 2.269c-3.9829 1.2479-12.596 3.602-19.139 5.2312-12.242 3.0479-14.739 3.9998-10.493 3.9998 7.1182 0 21.962-2.7564 43.89-8.1502 30.866-7.592 35.332-9.1045 41.066-13.905 5.1999-4.3536 10.373-6.8015 21.132-9.9989 4.0161-1.1936 8.8875-2.9767 10.825-3.9625 2.0703-1.0532 4.6478-1.5774 6.25-1.2711 2.5019 0.47827 2.7267 0.26168 2.7267-2.6267 0-1.9232-0.58357-3.3303-1.5-3.6166-5.0769-1.5861-5.1295-1.63-3-2.5057 1.1-0.45231 4.0678-0.85401 6.595-0.89266 5.9528-0.0911 9.6411-3.3276 6.4506-5.6606-2.601-1.9019-5.7905-1.7767-15.046 0.59032-4.301 1.1-9.5624 2-11.692 2-3.98 0-8.4155 1.6234-12.808 4.6878l-2.5 1.7441 4-4.8178-3.8072 2.1929c-4.5144 2.6003-4.8055 2.65-4.0545 0.69291 0.36084-0.94032-9e-3 -1.5-0.99243-1.5-2.6526 0-5.5113-4.0393-6.738-9.521-1.0861-4.8532-0.98155-5.6384 1.4612-10.974 1.447-3.1607 2.6277-5.8049 2.6238-5.8759-4e-3 -0.071-2.2707-0.23892-5.0373-0.37308-8.7805-0.42578-10.173 4.4592-9.9824 35.015 0.0489 7.8274-2.0044 12.426-6.361 14.246-10.521 4.3958-49.89 6.6989-53.324 3.1195-1.7416-1.8149-1.3883-1.8479 13.712-1.2792l15.5 0.58377-6.749-2.4048c-22.551-8.0352-50.476-8.019-67.094 0.0388l-3.1568 1.5306 2.6829-2.4474c1.4756-1.3461 3.2756-2.6584 4-2.9162 2.8784-1.0245-0.49648-2.0338-6.9997-2.0934-5.4044-0.0495-7.9428 0.47193-11.948 2.4543l-5.0861 2.5171-4.5514-9.2892c-6.4979-13.262-15.733-21.331-24.413-21.331h-3.1843l0.051192-22.5 6.5269 10.238-0.40832-6.4126c-0.45992-7.2229 1.5117-13.861 5.0357-16.953 2.0944-1.838 2.1187-1.8357 1.3226 0.12754-1.8179 4.4832-1.7209 7.5052 0.3444 10.73l2.0938 3.2696 0.01685-3.25c0.02394-4.6176 1.6366-4.0294 2.4222 0.8835 0.72248 4.5182 1.4752 4.4304 3.0598-0.35688 1.1929-3.6039 3.5348-4.9141 3.5348-1.9776 0 1.6251 0.67263 1.293 3.8824-1.9167 2.1353-2.1353 4.6103-3.8824 5.5-3.8824 1.3504 0 1.2795 0.33817-0.42924 2.0469l-2.0469 2.0469 3.1309 3.9531c1.722 2.1742 3.3508 3.9531 3.6195 3.9531s-0.45041-1.1937-1.598-2.6527c-2.859-3.6346-1.8048-4.153 1.9759-0.97177 3.7325 3.1406 3.5708 3.1289 9.1447 0.66333 3.4129-1.5097 19.26-5.0389 22.626-5.0389 1.4297 0-4.7602-5.4279-8.2027-7.1928-4.6794-2.3992-8.4855-1.8966-13.269 1.752-4.0125 3.0605-4.6509 1.1137-1.389-4.2359 2.1591-3.541 1.7144-4.3529-3.4773-6.3478-17.845-6.8569-40.605 1.3014-42.567 15.258-0.46733 3.3241-0.63298 2.4827-0.75-3.8094-0.17236-9.2675 0.52389-10.367 9.3498-14.768 10.262-5.1162 22.499-5.6547 35.169-1.5476l6.1687 1.9998 5.3313-2.9442c5.5337-3.0559 15.631-6.548 22.022-7.6163 4.092-0.68395 6.1481-4.6319 9.5559-18.348 1.5155-6.0999 1.4967-6.4219-0.59082-10.136-3.5929-6.3927-2.4534-13.935 2.7652-18.304 1.1433-0.95712 2.0886-2.7571 2.1007-4 0.11215-11.54 20.044-28.76 33.29-28.76 1.0995 0 3.3915-1.0612 5.0934-2.3581 14.416-10.986 36.346-11.577 49.766-1.3411 15.437 11.775 11.106 24.817-12.35 37.184-9.6969 5.1128-11.822 7.6845-11.822 14.309 0 2.1412-0.9 6.509-2 9.7062-2.5845 7.5121-2.5759 7.5591 1.25 6.8343 4.3521-0.8245 5.75-2.0758 5.75-5.1468 0-2.9525 6.2009-9.1535 12.323-12.323 3.9291-2.0343 17.903-2.1826 32.306-0.3427 3.7643 0.48088 5.946 0.23261 8.2003-0.93315 5.6477-2.9206 15.034-0.7146 16.826 3.9544 1.2909 3.3639 5.9696 4.6641 10.837 3.0115 7.5048-2.5479 14.508-0.34989 14.508 4.5535v3.0374l-2.6349-2.0726c-1.4492-1.1399-3.8117-2.0657-5.25-2.0573-1.9222 0.01125-2.2417 0.25172-1.2058 0.90748 0.77512 0.49069 2.0864 0.63233 2.914 0.31475 0.99417-0.3815 1.2542-0.17205 0.76636 0.6173-0.40611 0.65709-0.36743 1.0881 0.0859 0.95788 1.6121-0.46317 5.3243 2.6986 5.3243 4.5348 0 1.4122-0.42594 1.674-1.75 1.0756-4.2549-1.9228-12.094-1.6388-16.044 0.58123-3.5261 1.9818-8.0259 7.509-6.9716 8.5634 0.2361 0.23609 1.0392-0.71044 1.7847-2.1034 3.0765-5.7485 12.863-8.4493 20.231-5.5834 2.541 0.98832 2.75 1.4912 2.75 6.6174v5.5478l-2.4168-1.5835c-2.5757-1.6876-5.9344-0.59598-7.0413 2.2886-0.73255 1.909 3.2277 5.4567 5.3421 4.7856 4.0291-1.2788 6.122 16.589 2.422 20.678-1.592 1.7592-1.5919 1.8326 2e-3 1.2211 1.5688-0.60199 1.6928 1.3498 1.657 26.077-0.0409 28.212-0.76167 34.226-5.8118 48.488-1.0712 3.025-2.2659 6.4-2.655 7.5s0.45068 0.2 1.8661-2c1.4154-2.2 2.5875-3.633 2.6047-3.1845 0.0622 1.6246-7.0644 16.121-9.4861 19.296-1.3655 1.7902-2.4827 3.5942-2.4827 4.0088 0 1.7473 6.5428-5.6711 11.09-12.574l4.9098-7.4537v4.3613c0 4.7556-3.7026 10.483-11.988 18.546l-4.1108 4-9.7004-0.0699c-13.285-0.0957-19.689-2.7856-37.578-15.784-1.1886-0.86365-8.1796 1.6142-30.406 10.777-13.48 5.5572-33.245 10.746-49.716 13.051-11.889 1.6642-31.351 6.0358-32.701 7.3452-0.98972 0.96052 22.746 0.34876 34.701-0.89438 20.19-2.0994 41.135-7.9725 60.057-16.84 12.457-5.8374 15.982-6.1245 22.06-1.7971 20.059 14.281 40.626 15.653 53.826 3.5887l5.5566-5.0784v25.2h-256zm20.468-15.02c-4.3736-1.773-9.1019-8.5096-10.969-15.628-2.345-8.94-3.9924-10.781-3.0614-3.4214 0.38264 3.025 0.92613 7.525 1.2078 10 0.68097 5.9845 1.2769 7.7363 2.1581 6.3442 0.47567-0.75137 2.1217-0.38022 5.1962 1.1717 2.475 1.2493 5.175 2.2907 6 2.3144 0.85712 0.0245 0.62932-0.31-0.5315-0.78059zm28.532 0.09023c0-0.47305-2.4412-1.112-5.4249-1.42-6.3237-0.65266-14.015-3.8127-17.575-7.2205-1.375-1.3163-4.075-3.0529-6-3.8591-3.5667-1.4936-7.3061-4.9385-8.2938-7.6404-0.41341-1.1309-0.56776-1.0414-0.62728 0.36385-0.11512 2.7179 3.6343 8.7536 7.2285 11.636 1.7144 1.375 2.7893 1.9686 2.3886 1.3191-0.86334-1.3993 1.2364-2.998 2.1658-1.649 3.1774 4.6118 26.138 12.052 26.138 8.4698zm9.75-14.829c-0.9625-0.25152-2.5375-0.25152-3.5 0-0.9625 0.25153-0.175 0.45733 1.75 0.45733s2.7125-0.2058 1.75-0.45733zm140.18-6.785c2.3799-0.83969 7.9824-3.7521 12.45-6.4721 4.4675-2.72 9.4087-5.2557 10.98-5.6349 1.9604-0.47301 3.2896-1.7235 4.2336-3.9827 0.75679-1.8113 3.344-6.1378 5.7493-9.6146s5.1769-7.6714 6.1591-9.3214l1.7858-3-2.6216 3c-1.4419 1.65-5.2186 6.6262-8.3927 11.058l-5.7711 8.0581-14.5 7.1676c-7.975 3.9422-17.088 8.2788-20.25 9.6368s-5.75 2.6587-5.75 2.8904c0 0.59518 10.759-1.9618 15.927-3.7854zm-170.54-2.7757c-1.1887-1.5696-2.9131-2.3222-5.702-2.4886-2.1989-0.13125-3.8098-0.0504-3.5797 0.17967 0.312 0.31201 8.1674 3.5872 10.689 4.4567 0.16318 0.0563-0.47011-0.9102-1.4073-2.1477zm217.1-17.25c0.83238-1.925 2.1945-5.075 3.0268-7s1.2664-3.5 0.96446-3.5c-0.49227 0-3.1907 5.7137-5.5492 11.75-1.4215 3.6382-0.0958 2.5745 1.558-1.25zm-22.676-2.827c0.72063-1.4831 4.9956-6.63 9.5-11.438 12.97-13.842 13.186-14.895 0.35684-1.7355-6.4342 6.6-13.119 13.495-14.855 15.323l-3.1559 3.3229 3.4217-1.3881c1.8819-0.76346 4.0113-2.6016 4.7319-4.0847zm-3.1069-8.2354c4.4742-6.3812 7.0689-8.8759 14.952-14.376 6.9383-4.841 9.3868-7.312 13.844-13.971 2.9783-4.4496 5.0692-8.0902 4.6465-8.0902-1.4513 0-5.3045 4.228-8.321 9.1305-1.6614 2.7-5.1125 6.3164-7.6722 8.0396-2.5589 1.7226-7.8487 5.7404-11.755 8.9283-4.9144 4.0105-7.4228 5.4761-8.142 4.7569-0.71915-0.71915-1.1519 0.37538-1.4046 3.5526-0.42076 5.2904 1.0302 6.0548 3.8525 2.0295zm-152.93-4.9942c5.334-3.736-0.20726-13.002-10.628-17.773-4.4988-2.0596-18.988-3.1644-20.583-1.5694-1.5883 1.5883 9.537 16.9 12.279 16.9 0.82332 0 2.3305 0.75437 3.3493 1.6764 2.9276 2.6494 4.4674 0.38828 2.9976-4.4017l-1.1582-3.7746 4.827 5.25c5.318 5.7841 5.7034 5.9437 8.9163 3.6933zm57.944-18.481c-0.29784-2.2206-1.6265-5.4831-2.9525-7.25-4.2518-5.6653-4.5019-6.4152-1.4806-4.4395 1.4912 0.97518 2.7113 1.5218 2.7113 1.2148 0-1.876-4.0475-6.0253-9.3581-9.5934-5.7049-3.833-5.8929-4.0746-2.6419-3.3951 1.925 0.40235 4.0625 1.1847 4.75 1.7385 2.8498 2.2957 1.0704-1.2113-1.8699-3.6853-7.3439-6.1795-15.479-8.5243-29.63-8.5407-5.6375-7e-3 -10.25 0.21703-10.25 0.49679s1.3268 2.3403 2.9485 4.579 3.4566 5.6098 4.0776 7.4913c0.90838 2.7524 1.6514 3.424 3.8015 3.4364 4.1309 0.0237 5.5967 1.3235 4.2757 3.7918-1.5819 2.9559-1.4404 3.1929 1.9059 3.1929 1.655 0 7.7302 2.0165 13.5 4.481 15.65 6.6847 17.163 6.8109 14.423 1.2032-0.91418-1.8712-0.77215-1.826 0.99099 0.31574 1.132 1.375 2.6026 3.9625 3.268 5.75 1.6298 4.378 2.1845 4.0925 1.5299-0.78744zm24.866-17.79c-2.4257-7.8803-4.6754-14.593-4.9993-14.917-1.6243-1.6243-0.88404 1.5304 3.6946 15.744 2.7461 8.525 5.1554 15.05 5.354 14.5s-1.6236-7.4475-4.0493-15.328zm-7.6692 8.3779c0.59458-0.36747 1.081-0.19157 1.081 0.39089s0.64324 1.059 1.4294 1.059c1.4805 0 1.2126-1.2227-3.8975-17.786l-1.6309-5.2862-3.9504 2.2203c-2.5402 1.4277-4.6644 3.6952-5.9505 6.3519-2.4612 5.0843-2.5309 6.2756-0.25009 4.2758 1.8176-1.5937 7.6737-4.7756 8.7892-4.7756 0.35121 0-0.48777 1.3386-1.8644 2.9746-3.312 3.936-5.279 9.8212-3.7828 11.317 0.81059 0.81059 1.1139 0.71878 1.1302-0.34206 0.0291-1.8959 3.926-6.8982 3.9555-5.0776 0.0179 1.1064 0.313 1.1311 1.5222 0.12756 0.825-0.68469 1.5-1.0198 1.5-0.74457s-0.675 2.1158-1.5 4.0903c-2.3445 5.6111-2.0526 9.0728 0.42269 5.0134 1.0534-1.7275 2.4017-3.4416 2.9963-3.809zm32.632 1.982c1.5214-3.6411 1.9983-14.075 0.68057-14.889-0.42263-0.26119-0.60958 1.1906-0.41546 3.2261 0.19412 2.0356-0.51526 6.2727-1.5764 9.4159-2.0855 6.1774-1.063 7.9295 1.3113 2.247zm15.096-1.2182c-0.30857-0.30857-1.3679-0.23214-2.3542 0.16984-1.6723 0.6816-1.6583 0.782 0.20687 1.4894 1.8832 0.71423 3.3711-0.43543 2.1473-1.6592zm-1.0991-1.3003c1.0986-0.0143-11.888-39.753-13.527-41.392-1.2856-1.2856-16.154 0.87863-20.118 2.9284-1.6993 0.87873-2.8613 1.826-2.5823 2.105 0.27901 0.279 1.5493-0.0504 2.8228-0.73195 1.2735-0.68158 5.8906-1.4051 10.26-1.6078 7.7948-0.36163 9.5651 0.22783 9.5651 3.185 0 0.55-0.4189 0.33761-0.93089-0.47197-2.1456-3.3928-2.154 2.1194-0.0132 8.6864 2.6251 8.0527 4.4869 10.579 6.1052 8.2855 0.91108-1.2915 0.98604-1.2727 0.53927 0.1352-0.28539 0.89936 0.14768 2.5869 0.96237 3.75 0.8147 1.1631 1.1756 2.1148 0.80212 2.1148s-0.21232 0.5625 0.35826 1.25c1.1211 1.3508 1.2075 1.6948 1.2075 4.809 0 1.1325 0.38499 1.8211 0.85554 1.5303 1.2523-0.77399 0.0443 4.7603-1.2546 5.7475-0.63261 0.48078-0.0374 0.59294 1.399 0.26365 1.375-0.3152 2.9717-0.57924 3.5482-0.58675zm-10.925-25.552c-0.34295-0.8937-0.59502-2.1506-0.56015-2.7931 0.0349-0.64251 0.49453-0.0904 1.0215 1.227 0.52695 1.3174 0.77902 2.5743 0.56015 2.7931s-0.67854-0.33327-1.0215-1.227zm-106.62 14.873c1.3451-1.3891 1.2419-1.4733-1-0.81504-3.7602 1.104-7.4869 3.1575-8.9671 4.941-1.7358 2.0916 7.7481-1.8344 9.9671-4.126zm99.101 1.9156c0.74369-1.9442 0.73396-3.2628-0.0332-4.5-0.87615-1.413-0.74647-1.7559 0.67333-1.7804 1.6139-0.0279 1.6217-0.11024 0.0944-1.0016-2.6053-1.5206-4.291-0.27423-6.0507 4.4736-1.797 4.8486-1.5536 5.5584 1.9062 5.5584 1.6508 0 2.6736-0.82486 3.41-2.75zm52.875-4.5c-10.107-13.29-11.831-32.748-3.8751-43.732 2.2793-3.1465 2.5627-4.0185 1.3059-4.0185-2.4988 0-7.8189 6.1227-6.208 7.1445 0.96991 0.61522 0.85565 0.82879-0.44953 0.84021-0.9625 0.0084-1.75 0.49187-1.75 1.0743s0.5625 0.77409 1.25 0.42584 0.54711-0.0373-0.31197 0.69098c-2.5215 2.1376-3.1462 4.8059-1.1566 4.9402 1.5909 0.10738 1.5886 0.14998-0.0314 0.57333-0.9625 0.25152-1.75 0.8602-1.75 1.3526s0.675 0.63627 1.5 0.31969c0.825-0.31659 1.5-0.28796 1.5 0.0636s-1.0125 1.0462-2.25 1.5436c-2.243 0.90158-2.2422 0.90469 0.25 1.0032l2.5 0.0988-5 2.8583 2.5 0.0988c2.4793 0.098 2.4816 0.10624 0.26665 0.99705-1.4654 0.58938-2.027 1.436-1.6332 2.4621 0.46361 1.2082 0.91478 1.3028 1.9833 0.41594 1.0729-0.89042 1.3832-0.81201 1.3832 0.34948 0 0.82359 0.26289 3.0162 0.58419 4.8724 0.44244 2.556 0.32483 3.011-0.48469 1.875-0.92307-1.2954-1.071-1.2613-1.0842 0.25-8e-3 0.9625 0.61955 1.75 1.3955 1.75 0.77594 0 2.3531 1.9465 3.5048 4.3256 1.8597 3.8416 8.5827 12.674 9.647 12.674 0.2237 0-1.3899-2.3625-3.5858-5.25zm19.023-1.0538c0-0.16711-1.6875-1.8546-3.75-3.75l-3.75-3.4462 3.4462 3.75c3.2076 3.4904 4.0538 4.2098 4.0538 3.4462zm-43.5-8.3095c2.4094-1.0971 2.5078-1.2453 0.5-0.75274-1.375 0.33732-3.85 1.228-5.5 1.9794-2.4094 1.0971-2.5078 1.2453-0.5 0.75274 1.375-0.33732 3.85-1.228 5.5-1.9794zm9.7729-2.4513c-0.556-2.1262-1.7945-2.5184-2.8025-0.88753-1.0117 1.637 0.29555 3.9792 1.8812 3.3707 0.83741-0.32135 1.2182-1.3476 0.92122-2.4831zm-73.095-1.6854c0.24389-5.13 0.18273-6.1256-0.67254-10.947-0.69191-3.9008-0.51043-4.4111 2.5684-7.2232 3.9248-3.5847 3.6539-4.9663-0.30555-1.5584-1.7726 1.5257-3.1019 4.0409-3.7867 7.1649-0.58039 2.6477-1.2932 5.7139-1.5841 6.8139-0.42964 1.6248-0.33184 1.7186 0.52136 0.5 0.7913-1.1302 1.054-0.20578 1.0655 3.75 0.0174 5.9515 1.9201 7.2526 2.1936 1.5zm107.25 2.1786c0.86429-0.86428 1.5857-1.2018 1.6032-0.75 0.0816 2.1075 2.9682-3.3729 2.9682-5.6353 0-6.8858-10.7-16.541-13.734-12.393-2.4801 3.3917-1.0634 11.829 2.9549 17.599 2.1731 3.1205 3.9317 3.4544 6.2075 1.1786zm-136.02-8.9286c-0.75188-4.95-1.3768-11.336-1.3886-14.191-0.0119-2.855-0.4716-5.4691-1.0216-5.809-2.147-1.3269 0.015 25.357 2.2908 28.274 1.5627 2.0028 1.5729 1.2948 0.11944-8.2742zm91.184 7.464c1.4755-0.561 2.4899-1.2128 2.2542-1.4486-0.59137-0.59137-8.5273 1.8164-9.5324 2.8922-0.89396 0.95675 2.9922 0.18596 7.2782-1.4436zm-49.645-3.8694c0.73109-1.366 0.64025-2.1904-0.33014-2.9957-1.2396-1.0287-6.6192 4.8477-6.6192 7.2305 0 1.3011 5.916-2.304 6.9493-4.2348zm-2.9493-0.0947c0.5887-1.1 1.5743-2 2.1902-2s0.30532 0.9-0.69017 2-1.9811 2-2.1902 2 0.10147-0.9 0.69017-2zm50.134 0.84171c2.1263-0.63706 3.866-1.5674 3.866-2.0674 0-0.96446-2.5768-0.35712-7.5 1.7677-3.7936 1.6373-1.4702 1.8289 3.634 0.29966zm-53.574-3.5917c-0.56086-2.5764-0.10946-3.0218 7.1523-7.056 4.263-2.3683 8.5348-4.101 9.4929-3.8505 1.6024 0.41904 1.6239 0.22716 0.26827-2.3943-2.2879-4.4243-2.0164-4.7154 7.0263-7.5347 4.675-1.4576 8.5-3.033 8.5-3.5009 0-0.46792-0.5625-0.6751-1.25-0.4604-12.452 3.8887-16.436 5.4067-22.864 8.7124-12.448 6.4017-12.703 6.8826-9.3416 17.584 0.76704 2.4418 1.6045 1.205 1.0157-1.5zm-1.5479-6c0.013-1.8378 6.3357-6.5686 7.3814-5.5229 1.4087 1.4087 0.3831 3.207-2.9509 5.1741-4.3077 2.5416-4.446 2.5525-4.4305 0.34878zm8.9876-5.2243c0-2.7905 5.5341-5.6822 6.426-3.3578 0.34157 0.89011 0.49794 1.6902 0.3475 1.7779-0.15045 0.0877-1.4952 0.92333-2.9884 1.8569-3.446 2.1545-3.7852 2.1297-3.7852-0.27698zm50 8.7834c0-0.99771 0.37027-1.039-4.9484 0.55119-2.4466 0.73147-4.6106 1.8168-4.809 2.4117-0.22344 0.6703 1.5637 0.46641 4.6984-0.53601 2.7824-0.88979 5.059-1.9819 5.059-2.4269zm-123.32 2.1243c2.85-1.0798 7.3151-4.7168 7.3151-5.9584 0-1.1516-9.1939 0.74249-15.5 3.1932l-6 2.3318 4 0.60809c6.3646 0.96757 7.2083 0.9531 10.185-0.1747zm130.32-0.43339c0-0.825-0.675-1.5-1.5-1.5s-1.5 0.675-1.5 1.5 0.675 1.5 1.5 1.5 1.5-0.675 1.5-1.5zm-109.93-10.481c0.65352-2.4853 1.4169-9.181 1.6965-14.879l0.50826-10.361-2.386 0.74533c-3.3736 1.0538-3.4425 1.2487-5.8717 16.607-2.3776 15.032-2.2969 18.049 0.35728 13.369 1.5052-2.654 1.6266-2.7117 1.0525-0.5-0.35691 1.375-1.0484 2.9275-1.5365 3.45s-0.8876 1.371-0.8876 1.8855c0 2.448 6.0225-6.3437 7.0673-10.317zm127.83 2.4813c0.28145 5.7004 1.9036 3.7182 2.0458-2.5 0.16125-7.0496 4.9884-14.746 11.561-18.432 2.6609-1.4924 2.7174-1.6116 0.5-1.0542-1.375 0.34565-3.565 0.78766-4.8668 0.98224-5.7868 0.86503-12.133 10.458-12.133 18.339 0 9.459 1.4192 12.652 2.0734 4.6648 0.52993-6.4692 0.59214-6.6208 0.82029-2zm-29.572 4.906c6.1384-2.0916 6.0752-3.7343-0.0719-1.869-2.6125 0.79274-4.8625 1.4462-5 1.4522-0.37352 0.0162-0.30224 2.0108 0.0719 2.0108 0.17702 0 2.427-0.7173 5-1.594zm3.6781-4.6526c3.6841-1.4616 0.79676-2.045-3.8834-0.78478-5.1036 1.3742-6.8423 3.5663-1.9917 2.5109 1.8563-0.40388 4.5001-1.1806 5.8751-1.7261zm7.6112 1.4813c0.61117-0.40408 1.4254-2.8667 1.8095-5.4726 0.41894-2.8427 2.0707-6.7774 4.1294-9.8366l3.4312-5.0987-3.197 1.8672c-3.7201 2.1726-7.706 9.3034-8.497 15.201-0.53616 3.9973 0.0516 4.842 2.324 3.3396zm-5.1435-6.3846c0.74876-0.8084 0.20827-0.96088-1.9677-0.55508-4.4674 0.83313-8.5 2.5327-8.5 3.5824 0 1.1352 9.0316-1.4768 10.468-3.0273zm-25.655-0.32934c0.93466-0.93465-1.1354-2.5207-3.2898-2.5207-3.475 0-5.5228 1.014-5.5228 2.7348 0 1.3895 7.3885 1.21 8.8126-0.21406zm8.6554-7.0221c-0.88194-4.2697-1.2328-8.1338-0.7798-8.5869 0.45305-0.45305 5.4336-0.89616 11.068-0.98469 11.357-0.17846 11.176-0.03311 8.7146-7.0106-2.0492-5.8081-2.3921-5.9458-14.471-5.8111-10.002 0.11153-16 1.5313-16 3.7873 0 0.46279-1.8364 2.0567-4.081 3.5421-2.8217 1.8673-3.8947 3.1861-3.4773 4.2738 0.33201 0.86522-0.0581 2.5831-0.86698 3.8176-1.4095 2.1512-1.1842 3.4737 0.59194 3.4737 0.45833 0 0.83333-0.87344 0.83333-1.941s0.45-2.2191 1-2.559 1.0081-1.604 1.018-2.809c0.0149-1.8185 8.2203-8.691 10.377-8.691 1.0859 0 1.7336 10.272 0.71212 11.293-1.5795 1.5795-1.3736 3.1731 0.23718 1.8363 1.3992-1.1613 1.7729-0.29997 4.6513 10.721 1.8632 7.1341 2.2018 4.0179 0.47285-4.3523zm-2.468-15.62c0-4.2298 0.20081-4.6392 2.0397-4.1583 1.1218 0.29336 1.8126 0.7604 1.5352 1.0379-0.27747 0.27746-0.016 1.4173 0.5811 2.5329 0.97957 1.8304 1.1763 1.8663 2.0145 0.36852 0.71319-1.2744 2.4018-1.6599 7.2708-1.6599 6.0069 0 6.3766 0.13828 6.999 2.618 0.84597 3.3706 1.6298 3.0971-10.19 3.5554l-10.25 0.39734zm16.322 21.527c5.2514-1.7893 6.475-3.7817 1.4347-2.3362-5.4078 1.5509-5.598 0.88385-0.2566-0.89998 2.75-0.9184 4.9144-2.1198 4.8097-2.6698-0.10469-0.55 0.74815-1.3472 1.8952-1.7715 3.6911-1.3654 1.1416-1.8985-3.3539-0.70122-4.9682 1.3231-7.2624 3.0866-9.2817 7.1344-1.6483 3.3041-1.4471 3.3568 4.7526 1.2443zm-40.322-8.1851 2.5-1.0856-2.5537-0.06768c-2.8048-0.07434-12.946 4.5995-12.946 5.9664 0 0.47038 2.3625-0.17592 5.25-1.4362 2.8875-1.2603 6.375-2.7799 7.75-3.377zm16 4.7338c0-0.66178-1.3759-0.79656-3.75-0.36734-5.1894 0.9382-5.3293 1.4127-0.41667 1.4127 2.2917 0 4.1667-0.47039 4.1667-1.0453zm-27.88-5.2406c2.913-2.4614 7.9418-16.159 7.7895-21.217l-0.0902-2.9966-0.95291 3.5c-1.6704 6.1351-6.1285 18.044-6.9434 18.547-0.43254 0.26732-1.4922-0.52161-2.3549-1.7532-1.5305-2.1851-1.5684-2.1371-1.5684 1.9833 0 4.8056 0.46577 5.0245 4.1203 1.9365zm-9.2327-6.1985c2.0571-2.0895-0.67149-4.5156-5.0787-4.5156-1.8001 0-2.8089-0.52606-2.8089-1.4648 0-2.052 3.1992-3.5352 7.6254-3.5352 3.518 0 3.6335-0.09334 1.8157-1.4682-2.292-1.7336-8.7279-1.9839-11.593-0.45078-3.2887 1.76-3.2134 0.3451 0.17213-3.2356 1.7397-1.84 2.9281-2.6029 2.6409-1.6953-0.44468 1.4051-0.0499 1.5273 2.6581 0.82267 1.7492-0.45511 4.0661-0.9761 5.1487-1.1578 1.8657-0.31304 1.8427-0.44731-0.43969-2.5737-2.3599-2.1986-2.3693-2.2728-0.46837-3.7109 2.2287-1.6861 7.8671-3.0024 9.2361-2.1563 0.50943 0.31484 0.0416-1.2156-1.0396-3.4009-2.0991-4.2427-4.6241-5.197-5.4449-2.058-0.27548 1.0534-1.5463 2.1777-2.824 2.4984-1.2777 0.32069-4.9205 2.9463-8.095 5.8347-3.4501 3.1391-5.4603 4.4471-4.9973 3.2516 2.592-6.6927 0.53972-13.5-4.0699-13.5-2.2188 0-1.4994-1.6403 2.1086-4.8082 5.2743-4.6309 7.9342-4.9023 15.98-1.6303 3.468 1.4103 0.70481-1.4602-3.442-3.5758-9.6325-4.9141-20.214 1.2827-26.714 15.645-2.0073 4.4349-4.3444 5.0318-5.3631 1.3696-0.6832-2.4561-0.69715-2.4492-0.79508 0.39602l-0.0997 2.896-2.5404-2.7412c-2.3383-2.5231-2.7162-2.6255-4.75-1.2878-5.1929 3.4156-5.9385 9.5081-1.6841 13.762 1.9684 1.9684 4.5853 2.7718 3.5448 1.0883-0.53032-0.85808 2.3628-2.1738 5.4297-2.4692 0.87352-0.08415 2.5441 1.9438 4 4.8555 1.6846 3.3693 3.3154 5.2221 5 5.681 1.375 0.37455 5.875 1.8115 10 3.1933 8.227 2.7558 14.264 2.8063 16.888 0.14133zm-42.688-14.716c-0.66-0.66-1.2-2.2616-1.2-3.559 0-1.318-0.44128-2.0863-1-1.741-1.2837 0.79336-1.2711-0.12493 0.03518-2.5657 2.0105-3.7567 7.069-0.254 5.508 3.8139-0.33598 0.87555-0.08798 1.9151 0.55111 2.3101 1.3699 0.84662 0.33484 2.9418-1.4533 2.9418-0.68254 0-1.781-0.54-2.441-1.2zm38.467-6.4667c-0.36667-0.36667-0.65299-1.3792-0.63626-2.25 0.025-1.3003 0.22011-1.2571 1.0917 0.24167 1.0768 1.8517 0.76461 3.2283-0.4554 2.0083zm90.099 16.667c1.8512 0 4.2362 0.46583 5.3 1.0352 2.6346 1.41 2.6158-1.4051-0.0385-5.7583-4.643-7.6148-13.67-4.0139-11.38 4.5392 0.43914 1.6398 0.93156 2.0048 1.6863 1.25 0.58639-0.58635 2.5807-1.0661 4.4319-1.0661zm-11.606-1.6037c-0.43665-2.4335-3.0802-5.3963-4.8147-5.3963-1.8236 0-1.6925 0.91775 0.68864 4.8234 2.1194 3.4763 4.7116 3.8362 4.1261 0.57289zm-64.19-14.896c0-0.55-0.43621-0.325-0.96937 0.5s-0.96937 1.95-0.96937 2.5 0.43621 0.325 0.96937-0.5 0.96937-1.95 0.96937-2.5zm9.9887-7.7821c0.0389-3.5107-2.2178-10.718-3.356-10.718-0.275 0 0.15204 1.5605 0.94898 3.4679 1.9305 4.6202 1.9049 6.1554-0.0752 4.5121-0.83829-0.69572-1.7768-1.0123-2.0856-0.70346-0.30882 0.30881 0.37706 1.0638 1.5242 1.6777 2.4384 1.305 2.7238 4.8199 0.61745 7.6047-0.8075 1.0676-1.4636 2.6161-1.4581 3.4411 0.0226 3.3512 3.8456-5.7843 3.8844-9.2821zm-51.03-17.648c2.5848-2.5176 7.3708-6.0263 10.636-7.7971 7.0894-3.845 5.6008-4.3857-1.8471-0.67087-8.438 4.2087-17.843 14.643-17.673 19.608 0.02431 0.70941 0.97576-0.47699 2.1143-2.6364 1.1386-2.1595 4.1849-5.9862 6.7697-8.5038zm22.702-8.5682c17.368-12.462 30.189-15 44.996-8.9095 2.1304 0.8763 3.3971 1.0978 2.815 0.4922-2.7668-2.8786-12.929-5.2968-20.461-4.869-10.558 0.59969-19.33 4.9171-33.98 16.725-5.1202 4.1268-0.76729 1.8692 6.6305-3.4388zm27.369 166.78c0-0.5321 0.90307-1.7847 2.0068-2.7836 1.1038-0.99888 1.9347-2.3061 1.8465-2.905-0.0882-0.59885 0.59006-2.777 1.5072-4.8403 1.3565-3.0518 1.4707-4.5439 0.61204-8-0.6931-2.7898-0.73806-6.1369-0.13093-9.7485 0.87674-5.2155 0.93142-5.2931 1.0571-1.5 0.0729 2.2 0.73099 6.5426 1.4624 9.6503 0.82507 3.5054 0.99008 6.2576 0.43469 7.25-1.0484 1.8733 0.26802 2.1358 2.0042 0.39969 1.6076-1.6076 1.5161-0.3058-0.21072 2.9997-1.9549 3.742-10.589 11.47-10.589 9.4778zm97.997-94.559-2.5-3.1701 2.7186 1.9754c1.4952 1.0865 2.7327 2.5379 2.75 3.2254 0.0427 1.7003-0.10695 1.5979-2.9686-2.0308z"/>
</svg>
